<svg xmlns="http://www.w3.org/2000/svg" version="1.1" xmlns:xlink="http://www.w3.org/1999/xlink" width="512" height="512" x="0" y="0" viewBox="0 0 24 24" style="enable-background:new 0 0 512 512" xml:space="preserve" fill-rule="evenodd"><g><path d="M20.75 18.25a2.5 2.5 0 0 1 0 5 2.5 2.5 0 0 1 0-5zm0 1.5a1 1 0 1 0 0 2 1 1 0 0 0 0-2zM20.75 17.25a2.5 2.5 0 0 1 0-5 2.5 2.5 0 0 1 0 5zm0-1.5a1 1 0 1 0 0-2 1 1 0 0 0 0 2z" fill="#e0e0e0" opacity="1"></path><path d="M23.25 10.5a.75.75 0 0 1-1.5 0v-6a2.25 2.25 0 0 0-2.25-2.25h-15A2.25 2.25 0 0 0 2.25 4.5V13a2.25 2.25 0 0 0 2.25 2.25H8a.75.75 0 0 1 0 1.5H4.5A3.75 3.75 0 0 1 .75 13V4.5A3.75 3.75 0 0 1 4.5.75h15a3.75 3.75 0 0 1 3.75 3.75z" fill="#e0e0e0" opacity="1"></path><path d="m15.205 9.805-4.068 2.589a1.252 1.252 0 0 1-1.921-1.055V6.161a1.25 1.25 0 0 1 1.921-1.055l4.068 2.589a1.251 1.251 0 0 1 0 2.11zM19.397 19.364a.75.75 0 1 1-.794 1.272l-8-5a.75.75 0 1 1 .794-1.272z" fill="#e0e0e0" opacity="1"></path><path d="M18.603 14.864a.75.75 0 1 1 .794 1.272l-8 5a.75.75 0 1 1-.794-1.272zM-22.446 41.233l-2.997-2.997a1.97 1.97 0 0 1 .06-2.844l.001-.001c2.309-2.111 4.765-2.822 7.397-1.906 2.371-1.83 4.724-3.005 6.668-3.482 2.048-.503 3.689-.215 4.609.705s1.208 2.561.705 4.609c-.476 1.94-1.646 4.286-3.47 6.652.939 2.648.232 5.118-1.891 7.44l-.001.001a1.966 1.966 0 0 1-2.843.06l-3.025-3.024c-1.164-.292-2.274-.981-3.253-1.96s-1.668-2.089-1.96-3.253zm11.201.551c2.009-2.413 3.299-4.842 3.786-6.824.345-1.409.323-2.559-.309-3.192-.633-.632-1.783-.654-3.192-.309-1.947.478-4.325 1.732-6.696 3.68a.702.702 0 0 1-.111.092 27.393 27.393 0 0 0-1.874 1.711c-1.182 1.182-1.599 2.408-1.42 3.584a.445.445 0 0 1 .005.036c.165 1.028.771 2.004 1.631 2.863.883.883 1.888 1.498 2.947 1.643.125.017.25.028.375.032 1.045.031 2.12-.418 3.161-1.459a27.446 27.446 0 0 0 1.697-1.857z" fill="#e0e0e0" opacity="1"></path></g></svg>