<svg xmlns="http://www.w3.org/2000/svg" version="1.1" xmlns:xlink="http://www.w3.org/1999/xlink" width="512" height="512" x="0" y="0" viewBox="0 0 384 384" style="enable-background:new 0 0 512 512" xml:space="preserve" class=""><g><path d="M239.584 0h-95.168c-8.832 0-16 7.168-16 16v95.232c0 4.304 1.736 8.432 4.816 11.44l47.584 46.528A15.964 15.964 0 0 0 192 173.76c4.032 0 8.08-1.52 11.184-4.56l47.584-46.528a15.995 15.995 0 0 0 4.816-11.44V16c0-8.832-7.168-16-16-16zm-16 104.504L192 135.384l-31.584-30.88V32h63.168v72.504zM250.768 261.336 203.184 214.8c-6.216-6.088-16.152-6.088-22.368 0l-47.584 46.536a15.995 15.995 0 0 0-4.816 11.44V368c0 8.832 7.168 16 16 16h95.168c8.832 0 16-7.168 16-16v-95.224c0-4.304-1.736-8.432-4.816-11.44zM160.416 352v-72.496L192 248.616l31.584 30.888V352h-63.168zM169.2 180.808l-46.536-47.584a15.995 15.995 0 0 0-11.44-4.816H16c-8.832 0-16 7.168-16 16v95.168c0 8.84 7.168 16 16 16h95.224c4.304 0 8.432-1.736 11.44-4.816l46.536-47.576c6.08-6.216 6.08-16.16 0-22.376zm-64.704 42.768H32v-63.16h72.496L135.384 192l-30.888 31.576zM368 128.416h-95.224a15.995 15.995 0 0 0-11.44 4.816L214.8 180.816c-6.08 6.216-6.08 16.16 0 22.376l46.536 47.576a15.995 15.995 0 0 0 11.44 4.816H368c8.832 0 16-7.168 16-16v-95.168c0-8.84-7.168-16-16-16zm-16 95.16h-72.496L248.616 192l30.888-31.584H352v63.16z" fill="#e0e0e0" opacity="1"></path></g></svg>